avconv version 9.18-6:9.18-0ubuntu0.14.04.1+fdkaac, Copyright (c) 2000-2014 the Libav developers
  built on Apr 10 2015 23:18:58 with gcc 4.8 (Ubuntu 4.8.2-19ubuntu1)
Input #0, image2, from 'imagenes/Cubo%02d.png':
  Duration: 00:00:04.00, start: 0.000000, bitrate: N/A
    Stream #0.0: Video: png, rgb24, 320x240, 25 fps, 25 tbr, 25 tbn
[libx264 @ 0x25d34e0] using cpu capabilities: MMX2 SSE2Fast SSSE3 SSE4.2 AVX
[libx264 @ 0x25d34e0] profile High, level 1.3
Output #0, avi, to 'result/cub_umh_10.avi':
  Metadata:
    ISFT            : Lavf54.20.4
    Stream #0.0: Video: libx264, yuv420p, 320x240, q=-1--1, 25 tbn, 25 tbc
Stream mapping:
  Stream #0:0 -> #0:0 (png -> libx264)
Press ctrl-c to stop encoding
frame=  100 fps=  0 q=32764.0 Lsize=     436kB time=3.92 bitrate= 910.4kbits/s    
video:188kB audio:0kB global headers:0kB muxing overhead 131.798341%
[libx264 @ 0x25d34e0] frame I:16    Avg QP:25.89  size:  6552
[libx264 @ 0x25d34e0] frame P:84    Avg QP:27.94  size:  3966
[libx264 @ 0x25d34e0] mb I  I16..4: 10.2% 81.0%  8.8%
[libx264 @ 0x25d34e0] mb P  I16..4:  4.6% 26.5%  4.6%  P16..4: 22.7% 25.3% 12.1%  0.0%  0.0%    skip: 4.2%
[libx264 @ 0x25d34e0] 8x8 transform intra:76.5% inter:74.9%
[libx264 @ 0x25d34e0] coded y,uvDC,uvAC intra: 71.9% 93.6% 76.9% inter: 53.9% 64.0% 14.8%
[libx264 @ 0x25d34e0] i16 v,h,dc,p: 10% 40% 12% 37%
[libx264 @ 0x25d34e0] i8 v,h,dc,ddl,ddr,vr,hd,vl,hu: 20% 14% 21%  6%  6%  9%  5% 12%  7%
[libx264 @ 0x25d34e0] i4 v,h,dc,ddl,ddr,vr,hd,vl,hu: 23% 10% 15%  9%  7% 10%  6% 13%  5%
[libx264 @ 0x25d34e0] i8c dc,h,v,p: 41% 20% 23% 17%
[libx264 @ 0x25d34e0] Weighted P-Frames: Y:17.9% UV:14.3%
[libx264 @ 0x25d34e0] kb/s:875.91
bench: utime=1.431s maxrss=48632kB
